<svg width="125" height="40" viewBox="0 0 125 40" fill="none" xmlns="http://www.w3.org/2000/svg">
<g clip-path="url(#clip0_9076_7883)">
<path fill-rule="evenodd" clip-rule="evenodd" d="M19.5583 8.38054C19.2199 6.579 19.5875 4.71517 20.5837 3.182C21.5644 1.73646 24.7749 0.675792 30.2152 0C29.0093 0.777497 28.0424 1.87955 27.4235 3.182C26.441 5.19854 25.5873 7.60537 24.2613 8.38054C23.3808 8.92262 22.0333 9.05272 20.2186 8.84673C22.0619 6.3893 23.1965 4.9293 23.6224 4.46673C23.9767 4.09812 21.7165 5.59968 20.5676 6.90609C20.2037 7.37779 19.8667 7.87007 19.5583 8.38054Z" fill="#80BC00"/>
<path fill-rule="evenodd" clip-rule="evenodd" d="M17.7168 6.01163C17.8386 5.4133 17.8346 4.79582 17.7051 4.19913C17.5757 3.60244 17.3236 3.03985 16.9652 2.54775C16.2565 1.57201 13.9121 0.8655 9.93213 0.428223C10.7988 0.925081 11.5081 1.66005 11.9776 2.54775C12.697 3.89211 13.3198 5.49666 14.2862 6.01163C14.9304 6.35857 15.8968 6.46156 17.239 6.32604C15.8968 4.68896 15.0646 3.71503 14.7425 3.40424C14.4848 3.15488 16.133 4.15773 16.9705 5.03047C17.2388 5.34191 17.488 5.66957 17.7168 6.01163Z" fill="#80BC00"/>
<path fill-rule="evenodd" clip-rule="evenodd" d="M27.9496 16.2625C28.7664 17.8964 29.1912 19.7013 29.1898 21.5315C29.206 23.0382 28.9279 24.5334 28.3712 25.9314C27.8145 27.3295 26.9902 28.603 25.9455 29.679C24.9008 30.755 23.6561 31.6124 22.2828 32.2021C20.9096 32.7918 19.4346 33.1023 17.9423 33.1157C14.9488 33.0503 12.0998 31.8036 10.0056 29.6429C7.91143 27.4821 6.73872 24.5791 6.73872 21.5559C6.73872 18.5327 7.91143 15.6297 10.0056 13.4689C12.0998 11.3082 14.9488 10.0615 17.9423 9.99607C19.7338 9.99192 21.4993 10.4292 23.0855 11.27C20.706 9.74178 17.9438 8.93124 15.1237 8.9336C6.76459 8.9336 0 15.8885 0 24.4696C0 33.0507 6.76459 40.0001 15.1076 40.0001C19.151 39.9615 23.0137 38.3033 25.8467 35.39C28.6796 32.4767 30.2509 28.5468 30.2152 24.4642C30.2266 21.5712 29.4423 18.7319 27.9496 16.2625ZM10.4905 21.6833C10.4852 23.1925 10.896 24.6734 11.677 25.9603C11.2491 25.1048 11.0265 24.1596 11.0274 23.2011C11.0432 22.0254 11.403 20.8806 12.0615 19.9108C12.72 18.9409 13.6478 18.1893 14.7282 17.7505C15.8086 17.3116 16.9934 17.205 18.1337 17.4442C19.2739 17.6834 20.3186 18.2576 21.1365 19.0947C21.9544 19.9318 22.5089 20.9943 22.7303 22.1487C22.9517 23.3031 22.8301 24.4979 22.3809 25.5827C21.9316 26.6675 21.1748 27.5941 20.2054 28.2457C19.2361 28.8974 18.0975 29.2452 16.933 29.2453C15.9977 29.2472 15.0762 29.0183 14.2486 28.5785C15.4846 29.3779 16.9201 29.8065 18.3879 29.8145C19.9869 29.8457 21.5589 29.3955 22.9036 28.5212C24.2482 27.6469 25.3046 26.3882 25.938 24.9054C26.5715 23.4227 26.7534 21.7831 26.4604 20.1955C26.1675 18.608 25.4131 17.1445 24.2933 15.9916C23.1735 14.8386 21.739 14.0485 20.1728 13.7218C18.6066 13.3951 16.9794 13.5467 15.4988 14.1572C14.0182 14.7677 12.7512 15.8096 11.8592 17.1499C10.9673 18.4903 10.4908 20.0685 10.4905 21.6833ZM19.7408 23.2336C19.7302 22.6882 19.5604 22.1581 19.2526 21.7097C18.9448 21.2614 18.5127 20.9148 18.0106 20.7134C17.5084 20.5121 16.9586 20.4649 16.43 20.5778C15.9014 20.6907 15.4176 20.9588 15.0393 21.3482C14.661 21.7377 14.405 22.2313 14.3034 22.7671C14.2018 23.3029 14.2592 23.857 14.4683 24.36C14.6775 24.863 15.029 25.2925 15.4789 25.5945C15.9289 25.8966 16.4571 26.0578 16.9974 26.0579C17.3616 26.0543 17.7216 25.9783 18.0567 25.8341C18.3919 25.6899 18.6955 25.4804 18.9503 25.2176C19.2052 24.9547 19.4061 24.6437 19.5418 24.3024C19.6774 23.961 19.7451 23.596 19.7408 23.2282V23.2336Z" fill="#F18A00"/>
<path d="M115.159 14.0506C115.264 13.4938 115.568 12.9955 116.014 12.6507C116.459 12.3058 117.015 12.1384 117.575 12.1804C118.115 12.1585 118.644 12.3364 119.063 12.6808C119.482 13.0252 119.763 13.5123 119.851 14.0506H115.159ZM122.111 15.9045C122.167 15.5803 122.197 15.2522 122.203 14.9233C122.237 13.6306 121.762 12.377 120.882 11.4378C120.462 10.9788 119.95 10.6161 119.379 10.3739C118.809 10.1317 118.193 10.0157 117.575 10.0338C116.929 10.0092 116.286 10.1215 115.685 10.3633C115.085 10.6051 114.542 10.9711 114.091 11.4378C113.646 11.8978 113.297 12.4434 113.066 13.0422C112.834 13.6411 112.725 14.2808 112.743 14.9233C112.719 15.5698 112.826 16.2144 113.058 16.8176C113.289 17.4208 113.641 17.9697 114.091 18.4306C114.574 18.9005 115.146 19.266 115.774 19.5046C116.402 19.7433 117.071 19.85 117.741 19.8183C118.52 19.8614 119.298 19.7016 119.998 19.3542C120.698 19.0068 121.299 18.4834 121.741 17.8343L119.835 16.723C119.592 17.0334 119.278 17.2799 118.92 17.4413C118.562 17.6027 118.17 17.6743 117.779 17.65C116.367 17.65 115.503 17.0754 115.191 15.9099L122.111 15.9045ZM107.707 10.0338C107.178 9.98906 106.647 10.0852 106.167 10.3125C105.686 10.5398 105.273 10.8905 104.969 11.3293V10.2994H102.607V19.5527H104.969V14.5547C104.969 13.0152 105.758 12.2563 106.988 12.2563C107.238 12.2371 107.489 12.2739 107.723 12.364C107.957 12.4542 108.169 12.5954 108.343 12.7777C108.517 12.96 108.648 13.1788 108.729 13.4185C108.809 13.6583 108.836 13.9129 108.808 14.1644V19.5527H111.17V13.8663C111.2 13.3545 111.128 12.8418 110.958 12.3586C110.788 11.8754 110.525 11.4314 110.182 11.0529C109.866 10.714 109.481 10.4477 109.054 10.2719C108.627 10.0961 108.168 10.0149 107.707 10.0338ZM100.438 19.5527V10.2994H98.0703V19.5527H100.438ZM99.246 9.1827C99.6315 9.18132 100.001 9.02719 100.275 8.75346C100.549 8.47974 100.706 8.10831 100.712 7.71909C100.724 7.5183 100.695 7.31715 100.627 7.128C100.559 6.93885 100.454 6.7657 100.317 6.61922C100.181 6.47273 100.016 6.35601 99.8333 6.27622C99.6504 6.19643 99.4533 6.15527 99.2541 6.15527C99.0548 6.15527 98.8577 6.19643 98.6749 6.27622C98.492 6.35601 98.3272 6.47273 98.1907 6.61922C98.0541 6.7657 97.9487 6.93885 97.8809 7.128C97.8131 7.31715 97.7844 7.5183 97.7965 7.71909C97.8006 8.10595 97.9547 8.47578 98.2257 8.74934C98.4966 9.02291 98.8629 9.17847 99.246 9.1827ZM93.8773 10.2669H91.5097V19.5527H93.8773V15.1293C93.8421 14.7648 93.9012 14.3973 94.049 14.0628C94.1967 13.7283 94.428 13.4383 94.7202 13.2212C95.2896 12.8314 95.9829 12.6709 96.6637 12.7713V10.1042C96.0732 10.0679 95.4863 10.22 94.9862 10.5391C94.4861 10.8582 94.0982 11.3281 93.8773 11.8823V10.2669ZM82.8124 14.0235C82.9184 13.4692 83.2215 12.9732 83.6644 12.6288C84.1074 12.2844 84.6597 12.1153 85.2175 12.1533C85.7642 12.1282 86.3007 12.3081 86.7239 12.6583C87.1471 13.0086 87.4271 13.5044 87.51 14.0506L82.8124 14.0235ZM89.7917 15.8774C89.847 15.5532 89.8775 15.2251 89.883 14.8962C89.9163 13.6159 89.4496 12.3737 88.5837 11.4378C88.1641 10.9754 87.6502 10.6105 87.0774 10.3681C86.5046 10.1257 85.8865 10.0117 85.2659 10.0338C84.6195 10.0098 83.9752 10.1223 83.3743 10.3641C82.7735 10.6058 82.2291 10.9715 81.7762 11.4378C81.3313 11.8979 80.9823 12.4434 80.75 13.0421C80.5176 13.6408 80.4065 14.2805 80.4233 14.9233C80.3991 15.5698 80.5062 16.2144 80.7379 16.8176C80.9697 17.4208 81.3212 17.9697 81.7708 18.4306C82.2534 18.9011 82.8262 19.2669 83.4541 19.5055C84.0819 19.7442 84.7515 19.8506 85.4216 19.8183C86.2007 19.8609 86.9776 19.7009 87.6779 19.3535C88.3782 19.0061 88.9785 18.483 89.4212 17.8343L87.51 16.7176C87.2675 17.0276 86.9543 17.2738 86.5972 17.4352C86.2401 17.5966 85.8497 17.6684 85.4591 17.6446C84.0472 17.6446 83.1828 17.0699 82.8714 15.9045L89.7917 15.8774ZM76.4182 14.7499C76.388 15.4173 76.1041 16.0472 75.6257 16.5088C75.1472 16.9703 74.511 17.2278 73.8493 17.2278C73.1876 17.2278 72.5513 16.9703 72.0729 16.5088C71.5944 16.0472 71.3106 15.4173 71.2803 14.7499C71.2702 14.4164 71.3284 14.0844 71.4513 13.7748C71.5742 13.4651 71.7591 13.1843 71.9944 12.9501C72.2403 12.7104 72.5315 12.523 72.8506 12.3992C73.1697 12.2753 73.5103 12.2175 73.8519 12.2292C74.1944 12.2174 74.5355 12.2778 74.8535 12.4066C75.1715 12.5354 75.4594 12.7298 75.6988 12.9773C75.9382 13.2084 76.1258 13.4886 76.2489 13.799C76.3721 14.1094 76.428 14.4429 76.4128 14.777L76.4182 14.7499ZM76.4182 11.4106C76.0814 10.9502 75.637 10.581 75.1246 10.336C74.6122 10.091 74.0477 9.97789 73.4815 10.0067C72.8739 9.99439 72.2706 10.1116 71.7109 10.3508C71.1512 10.5899 70.6478 10.9455 70.2334 11.3944C69.8034 11.8369 69.4651 12.3616 69.2383 12.9378C69.0115 13.5139 68.9008 14.13 68.9127 14.7499C68.8908 16.0034 69.3596 17.215 70.2173 18.1216C70.6353 18.5691 71.1408 18.924 71.7018 19.1638C72.2628 19.4036 72.867 19.5231 73.4761 19.5147C74.0424 19.5435 74.6068 19.4304 75.1192 19.1854C75.6316 18.9404 76.076 18.5712 76.4128 18.1107V19.1082C76.4128 20.5718 75.4948 21.3903 74.0076 21.3903C73.5255 21.4335 73.0415 21.3334 72.615 21.1022C72.1886 20.871 71.8385 20.5189 71.6078 20.0893L69.5892 21.2602C70.3945 22.7401 71.9568 23.5207 73.9379 23.5207C75.1587 23.5552 76.3525 23.1541 77.3094 22.3877C77.7801 21.9944 78.1533 21.4956 78.3994 20.9309C78.6455 20.3663 78.7575 19.7514 78.7268 19.1353V10.2994H76.4128L76.4182 11.4106ZM63.8876 10.0338C63.3596 9.98893 62.8292 10.085 62.3496 10.3124C61.87 10.5398 61.458 10.8905 61.1549 11.3293V10.2994H58.7873V19.5527H61.1549V14.5547C61.1549 13.0152 61.9441 12.2563 63.1736 12.2563C63.4233 12.2369 63.6742 12.2737 63.9082 12.3639C64.1422 12.454 64.3535 12.5954 64.527 12.7778C64.7005 12.9602 64.8318 13.1792 64.9115 13.4189C64.9913 13.6586 65.0175 13.9132 64.9882 14.1644V19.5527H67.3558V13.8663C67.3849 13.3541 67.312 12.8412 67.1414 12.358C66.9708 11.8748 66.706 11.431 66.3626 11.0529C66.0463 10.714 65.6617 10.4477 65.2347 10.2719C64.8077 10.0961 64.3483 10.0149 63.8876 10.0338ZM49.9289 16.8043C49.6914 16.5538 49.5059 16.2579 49.3832 15.9339C49.2606 15.61 49.2034 15.2645 49.2149 14.9179C49.2026 14.5744 49.2596 14.2321 49.3823 13.9115C49.505 13.591 49.691 13.2989 49.9289 13.0531C50.4149 12.5763 51.0659 12.3095 51.7435 12.3095C52.4212 12.3095 53.0722 12.5763 53.5582 13.0531C53.8038 13.2954 53.9962 13.587 54.1229 13.9092C54.2496 14.2314 54.3078 14.5769 54.2937 14.9233C54.3043 15.2718 54.2435 15.6188 54.1151 15.9425C53.9867 16.2662 53.7934 16.5596 53.5474 16.8043C53.057 17.2681 52.4102 17.5262 51.7382 17.5262C51.0662 17.5262 50.4194 17.2681 49.9289 16.8043ZM54.2937 11.3835C53.9366 10.9356 53.4794 10.5797 52.9595 10.345C52.4396 10.1104 51.872 10.0037 51.3033 10.0338C50.707 10.0311 50.1169 10.1568 49.5726 10.4027C49.0282 10.6485 48.542 11.0088 48.1465 11.4594C47.2838 12.3995 46.8177 13.642 46.8473 14.9233C46.8081 16.2172 47.2704 17.4755 48.1358 18.4306C48.5312 18.8802 49.0177 19.2387 49.5624 19.4819C50.107 19.725 50.6971 19.8472 51.2926 19.84C51.8613 19.8701 52.4289 19.7634 52.9488 19.5287C53.4686 19.2941 53.9259 18.9381 54.283 18.4902V19.5744H56.6506V10.2994H54.283L54.2937 11.3835ZM38.2251 6.58614V9.03092H41.6772V19.5527H44.2059V9.03092H47.6741V6.58614H38.2251Z" fill="#1E1147"/>
<path d="M73.7931 32.6223H73.2563V38.222H76.3433V37.6799H73.8092L73.7931 32.6223ZM69.321 33.3162L70.4377 36.3193H68.1828L69.321 33.3162ZM71.7369 38.222L69.5894 32.6223H69.0203L66.8729 38.222H67.458L67.9949 36.8451H70.6256L71.1625 38.222H71.7369ZM64.0489 33.1481C64.1954 33.1472 64.3404 33.1765 64.4752 33.2343C64.61 33.2921 64.7317 33.3772 64.8327 33.4842C64.9377 33.591 65.0203 33.718 65.0756 33.8577C65.1309 33.9974 65.1579 34.1469 65.1549 34.2973C65.1582 34.6023 65.0425 34.8964 64.8327 35.1159C64.7317 35.2229 64.61 35.3079 64.4752 35.3657C64.3404 35.4235 64.1954 35.4529 64.0489 35.4519H62.3846V33.1481H64.0489ZM65.8689 38.222L64.516 35.9073C64.7941 35.8279 65.0466 35.676 65.2482 35.467C65.4499 35.2579 65.5935 34.999 65.6648 34.7162C65.736 34.4334 65.7324 34.1366 65.6542 33.8557C65.576 33.5748 65.426 33.3195 65.2193 33.1156C65.0674 32.9577 64.8854 32.8325 64.6842 32.7477C64.483 32.6629 64.2669 32.6203 64.0489 32.6223H61.8316V38.222H62.3685V35.9778H63.9201L65.2193 38.222H65.8689ZM57.3917 35.6579H59.8452V35.1159H57.3917V33.1481H60.0438V32.606H56.8226V38.222H60.076V37.6799H57.3917V35.6579ZM54.2241 37.1812L51.1318 32.6223H50.6593V38.222H51.1962V33.6577L54.2886 38.222H54.761V32.6223H54.2241V37.1812ZM46.2194 35.6579H48.6782V35.1159H46.2194V33.1481H48.8554V32.606H45.6342V38.222H48.8554V37.6799H46.1711L46.2194 35.6579ZM41.1513 35.5549V36.097H43.3525C43.304 36.5715 43.0726 37.0077 42.7082 37.3113C42.2799 37.6423 41.7492 37.8094 41.2104 37.7829C40.8973 37.7951 40.5851 37.7411 40.2939 37.6244C40.0027 37.5077 39.7388 37.3309 39.5192 37.1053C39.0947 36.654 38.8581 36.0554 38.8581 35.433C38.8581 34.8106 39.0947 34.212 39.5192 33.7607C39.7376 33.5324 40.0009 33.3527 40.2921 33.2332C40.5834 33.1137 40.8961 33.057 41.2104 33.0668C41.5998 33.0613 41.9833 33.1628 42.32 33.3604C42.6567 33.5581 42.9338 33.8445 43.1216 34.1889L43.6155 33.9016C43.3821 33.4814 43.0385 33.1344 42.6223 32.8988C42.1932 32.6491 41.7056 32.52 41.2104 32.5247C40.8246 32.513 40.4407 32.5816 40.0823 32.7261C39.7239 32.8707 39.3989 33.0881 39.1273 33.3649C38.7201 33.7727 38.4434 34.2944 38.333 34.8626C38.2225 35.4308 38.2834 36.0194 38.5077 36.5523C38.732 37.0852 39.1094 37.538 39.5912 37.8521C40.073 38.1661 40.637 38.3271 41.2104 38.3141C41.9359 38.3497 42.646 38.0945 43.186 37.604C43.4234 37.3783 43.6115 37.1049 43.7381 36.8016C43.8648 36.4982 43.9273 36.1714 43.9216 35.8422V35.5549H41.1513Z" fill="#1E1147"/>
<path opacity="0.24" d="M125.005 27.1094H37.855V27.5539H125.005V27.1094Z" fill="#1E1147"/>
</g>
<defs>
<clipPath id="clip0_9076_7883">
<rect width="125" height="40" fill="white"/>
</clipPath>
</defs>
</svg>
