<svg width="48" height="48" viewBox="0 0 48 48" fill="none" xmlns="http://www.w3.org/2000/svg">
<rect width="48" height="48" rx="8" fill="#FF9100"/>
<path d="M18.375 14.3125C18.6094 14.3125 18.8438 14.4688 18.9219 14.7422L20.0938 17.6328L23.0625 16.6953C23.2969 16.6562 23.5703 16.7344 23.7266 16.9297C23.7656 16.9297 23.7656 16.9688 23.8047 17.0078C23.1016 17.3203 22.5156 17.7891 22.0859 18.4531L20.4844 20.7578C19.4297 21.1094 18.5312 21.9688 18.2188 23.1406L17.8281 24.625L17.4375 26.0312L16.0703 27.2812C15.875 27.4766 15.6016 27.5156 15.3672 27.3984C15.1328 27.2812 15.0156 27.0469 15.0156 26.7734L15.25 23.6875L12.1641 23.2188C11.9297 23.1797 11.6953 22.9844 11.6562 22.75C11.5781 22.4766 11.6953 22.2422 11.8906 22.0859L14.4688 20.3281L12.9453 17.6328C12.7891 17.3984 12.8281 17.125 12.9844 16.9297C13.1406 16.7344 13.4141 16.6172 13.6484 16.6953L16.6172 17.6328L17.7891 14.7422C17.8672 14.4688 18.1016 14.3125 18.375 14.3125ZM25.8359 20.3281C25.6016 20.25 25.3281 20.3672 25.1719 20.5625L23.9219 22.3984L31.7734 24.5078L31.6172 22.2812C31.5781 22.0469 31.3828 21.8125 31.1484 21.7344L25.8359 20.3281ZM23.1016 19.1562C23.8438 18.0625 25.2109 17.5547 26.5 17.9062L31.8125 19.3125C33.0625 19.6641 34 20.7578 34.1172 22.0859L34.3516 25.3672C35.0156 25.9141 35.3672 26.7734 35.1328 27.6719L34.7422 29.1562L34.0781 31.5781L33.7656 32.7891C33.5703 33.4531 32.9062 33.8438 32.2422 33.6875L31.6172 33.5312C30.9531 33.3359 30.5625 32.6719 30.7188 32.0078L31.0703 30.7969L21.3828 28.1797L21.0703 29.3906C20.9141 30.0547 20.2109 30.4453 19.5469 30.2891L18.9219 30.1328C18.2578 29.9375 17.8672 29.2734 18.0625 28.6094L18.375 27.3984L19.0391 24.9766L19.4297 23.4531C19.6641 22.5938 20.4062 21.9688 21.2266 21.8516L23.1016 19.1562ZM22.4375 24.2734C21.9297 24.1562 21.4219 24.4297 21.3047 24.9375C21.1484 25.4453 21.4609 25.9531 21.9688 26.0703C22.4766 26.2266 22.9844 25.9141 23.1016 25.4062C23.2578 24.9375 22.9453 24.3906 22.4375 24.2734ZM30.9531 27.5156C30.8359 28.0234 31.1094 28.5312 31.6172 28.6875C32.125 28.8047 32.6328 28.4922 32.7891 28.0234C32.8672 27.6719 32.7891 27.3203 32.5547 27.0469C32.3203 26.8125 31.9688 26.7344 31.6172 26.8125C31.3047 26.9297 31.0312 27.2031 30.9531 27.5156Z" fill="white"/>
</svg>
