<svg width="48" height="48" viewBox="0 0 48 48" fill="none" xmlns="http://www.w3.org/2000/svg">
<rect width="48" height="48" rx="8" fill="#FF9100"/>
<path d="M17.1641 18.7266C16.6562 18.8438 16.3047 19.2734 16.2266 19.7812L15.9531 22.2812L25.7188 19.6641L24.2344 17.6719C23.9219 17.2422 23.4141 17.0469 22.9062 17.2031L17.1641 18.7266ZM13.7656 19.5469C13.9219 17.9844 15.0156 16.7344 16.5 16.3047L22.2422 14.7812C23.7656 14.3906 25.3281 14.9375 26.2656 16.1875L28.4141 19.1172C29.3906 19.2344 30.25 19.9375 30.5234 20.9531L31.8516 25.7969L32.3203 27.5938C32.4766 28.2578 32.0859 28.9609 31.4219 29.1562L30.2109 29.4688C29.5469 29.625 28.8828 29.2344 28.6875 28.5703L28.2188 26.7734L17.3594 29.6641L17.8281 31.5H34.625C35.6406 31.5 36.5 32.3594 36.5 33.375V34H11.5V33.375C11.5 32.3594 12.3203 31.5 13.375 31.5H13.9609L13.7266 30.6406L12.4375 25.8359C12.1641 24.7812 12.5547 23.7656 13.3359 23.1797L13.7656 19.5469ZM16.0312 24.8594C15.6016 24.9766 15.25 25.2891 15.1328 25.7188C15.0156 26.1875 15.1328 26.6172 15.4844 26.9688C15.7969 27.2812 16.2656 27.3984 16.6953 27.2812C17.125 27.1641 17.4766 26.8125 17.5938 26.3828C17.7109 25.9531 17.5938 25.4844 17.2812 25.1719C16.9297 24.8594 16.5 24.7422 16.0312 24.8594ZM26.0312 23.4531C26.1484 23.9219 26.4609 24.2734 26.9297 24.3906C27.3594 24.5078 27.8281 24.3516 28.1406 24.0391C28.4531 23.7266 28.5703 23.2578 28.4531 22.8281C28.3359 22.3984 27.9844 22.0469 27.5547 21.9297C27.125 21.8125 26.6562 21.9297 26.3438 22.2422C26.0312 22.5547 25.9141 23.0234 26.0312 23.4531Z" fill="white"/>
</svg>
