<svg width="32" height="32" viewBox="0 0 32 32" fill="none" xmlns="http://www.w3.org/2000/svg">
<path d="M3 16V18.5C3 19.375 2.3125 20 1.5 20C0.625 20 0 19.375 0 18.5V16C0 7.1875 7.125 0 16 0C24.8125 0 32 7.1875 32 16V25.0625C32 28.0625 29.5 30.5625 26.5 30.5625L19.5625 30.5C19.0625 31.4375 18.0625 32 17 32H15C13.3125 32 12 30.6875 12 29C12 27.375 13.3125 26 15 26H17C18.0625 26 19.0625 26.625 19.5625 27.5L26.5 27.5625C27.875 27.5625 29 26.4375 29 25.0625V16C29 8.875 23.125 3 16 3C8.8125 3 3 8.875 3 16ZM10 14C8.875 14 8 14.9375 8 16V19C8 20.125 8.875 21 10 21V14ZM5 16C5 13.25 7.1875 11 10 11H11C12.0625 11 13 11.9375 13 13V22C13 23.125 12.0625 24 11 24H10C7.1875 24 5 21.8125 5 19V16ZM22 14V21C23.0625 21 24 20.125 24 19V16C24 14.9375 23.0625 14 22 14ZM27 16V19C27 21.8125 24.75 24 22 24H21C19.875 24 19 23.125 19 22V13C19 11.9375 19.875 11 21 11H22C24.75 11 27 13.25 27 16Z" fill="#CC6B02"/>
</svg>
