<svg width="40" height="29" viewBox="0 0 40 29" fill="none" xmlns="http://www.w3.org/2000/svg">
<path d="M4.3125 1.25L7.3125 3.25C8 3.75 8.1875 4.6875 7.75 5.375C7.25 6.0625 6.3125 6.25 5.625 5.75L2.625 3.75C1.9375 3.3125 1.75 2.375 2.25 1.6875C2.6875 1 3.625 0.8125 4.3125 1.25ZM37.3125 3.75L34.3125 5.75C33.625 6.25 32.6875 6.0625 32.25 5.375C31.75 4.6875 31.9375 3.75 32.625 3.25L35.625 1.25C36.3125 0.8125 37.25 1 37.75 1.6875C38.1875 2.375 38 3.3125 37.3125 3.75ZM1.5 11H5.5C6.3125 11 7 11.6875 7 12.5C7 13.375 6.3125 14 5.5 14H1.5C0.625 14 0 13.375 0 12.5C0 11.6875 0.625 11 1.5 11ZM34.5 11H38.5C39.3125 11 40 11.6875 40 12.5C40 13.375 39.3125 14 38.5 14H34.5C33.625 14 33 13.375 33 12.5C33 11.6875 33.625 11 34.5 11ZM30.625 18H27.5625L26.4375 8.875C26.375 8.375 25.9375 8 25.4375 8H14.5C14 8 13.5625 8.375 13.5 8.875L12.375 18H9.375L10.5625 8.5625C10.8125 6.5625 12.5 5 14.5 5H25.4375C27.4375 5 29.1875 6.5 29.4375 8.5625L30.625 18ZM15.1875 18L16 11.875C16.0625 11.375 16.5625 10.9375 17.125 11.0625C17.625 11.125 18.0625 11.625 17.9375 12.125L17.25 18H15.1875ZM31 23H9V26H31V23ZM9 20H31C32.625 20 34 21.375 34 23V26C34 27.6875 32.625 29 31 29H9C7.3125 29 6 27.6875 6 26V23C6 21.375 7.3125 20 9 20Z" fill="#CC6B02"/>
</svg>
