<svg width="48" height="48" viewBox="0 0 48 48" fill="none" xmlns="http://www.w3.org/2000/svg">
<rect width="48" height="48" rx="8" fill="#FF9100"/>
<path d="M15.25 14H17.1641C17.5156 14 17.8672 14.1562 18.1016 14.4297L26.5 23.8438V19C26.5 18.3359 27.0469 17.75 27.75 17.75H30.9531C31.6172 17.75 32.2812 18.0234 32.75 18.4922L35.7578 21.5C36.2266 21.9688 36.5 22.6328 36.5 23.2969V24V25.25V28.6875C36.5 29.5859 35.7969 30.25 34.9375 30.25H34C34 32.3203 32.3203 34 30.25 34C28.1797 34 26.5 32.3203 26.5 30.25H21.5C21.5 32.3203 19.8203 34 17.75 34C15.6797 34 14 32.3203 14 30.25H13.375C12.3203 30.25 11.5 29.4297 11.5 28.375V25.875C11.5 24.8594 12.3203 24 13.375 24H19L15.25 16.5V20.875C15.25 21.9297 14.3906 22.75 13.375 22.75C12.3203 22.75 11.5 21.9297 11.5 20.875V20.25C11.5 19.9375 11.7734 19.625 12.125 19.625C12.4375 19.625 12.75 19.9375 12.75 20.25V20.875C12.75 21.2266 13.0234 21.5 13.375 21.5C13.6875 21.5 14 21.2266 14 20.875V15.25C14 14.5859 14.5469 14 15.25 14ZM34 24V23.2969L30.9531 20.25H29V24H34ZM19.625 30.25C19.625 29.5859 19.2344 29 18.6875 28.6484C18.1016 28.2969 17.3594 28.2969 16.8125 28.6484C16.2266 29 15.875 29.5859 15.875 30.25C15.875 30.9531 16.2266 31.5391 16.8125 31.8906C17.3594 32.2422 18.1016 32.2422 18.6875 31.8906C19.2344 31.5391 19.625 30.9531 19.625 30.25ZM30.25 32.125C30.9141 32.125 31.5 31.7734 31.8516 31.1875C32.2031 30.6406 32.2031 29.8984 31.8516 29.3125C31.5 28.7656 30.9141 28.375 30.25 28.375C29.5469 28.375 28.9609 28.7656 28.6094 29.3125C28.2578 29.8984 28.2578 30.6406 28.6094 31.1875C28.9609 31.7734 29.5469 32.125 30.25 32.125Z" fill="white"/>
</svg>
